<mxfile host="app.diagrams.net" agent="Mozilla/5.0 (X11; Ubuntu; Linux x86_64; rv:129.0) Gecko/20100101 Firefox/129.0" version="24.7.7">
  <diagram id="6a731a19-8d31-9384-78a2-239565b7b9f0" name="Page-1">
    <mxGraphModel dx="1793" dy="1783" grid="1" gridSize="10" guides="1" tooltips="1" connect="1" arrows="1" fold="1" page="1" pageScale="1" pageWidth="1169" pageHeight="827" background="none" math="0" shadow="0">
      <root>
        <mxCell id="0" />
        <mxCell id="1" parent="0" />
        <mxCell id="1351" value="&lt;div&gt;Giới thiệu&amp;nbsp;&lt;/div&gt;&lt;div&gt;Buildee và các role hệ thống&lt;/div&gt;" style="ellipse;whiteSpace=wrap;html=1;shadow=0;fontFamily=Helvetica;fontSize=20;fontColor=#000000;align=center;strokeWidth=3;fillColor=#F08705;strokeColor=none;gradientColor=none;" parent="1" vertex="1">
          <mxGeometry x="1030.25" y="478" width="133.5" height="133.5" as="geometry" />
        </mxCell>
        <mxCell id="1360" style="endArrow=none;strokeWidth=6;strokeColor=#f08705;html=1;fontColor=#000000;" parent="1" source="1515" target="1351" edge="1">
          <mxGeometry relative="1" as="geometry" />
        </mxCell>
        <mxCell id="1392" value="&lt;div&gt;Quản lý hội họp, thông tin công trường&lt;/div&gt;" style="rounded=1;fillColor=#f5af58;strokeColor=none;strokeWidth=3;shadow=0;html=1;fontColor=#000000;arcSize=0;" parent="1" vertex="1">
          <mxGeometry x="707" y="-210" width="219" height="40" as="geometry" />
        </mxCell>
        <mxCell id="1393" value="&lt;div&gt;Dịch vụ quản lý thi công công trường&lt;/div&gt;" style="rounded=1;fillColor=#f5af58;strokeColor=none;strokeWidth=3;shadow=0;html=1;fontColor=#000000;" parent="1" vertex="1">
          <mxGeometry x="668" y="260" width="210" height="27.1" as="geometry" />
        </mxCell>
        <mxCell id="1394" value="Chia thành 3 phần" style="rounded=1;fillColor=#f5af58;strokeColor=none;strokeWidth=3;shadow=0;html=1;fontColor=#000000;" parent="1" vertex="1">
          <mxGeometry x="878" y="92.1" width="120" height="40" as="geometry" />
        </mxCell>
        <mxCell id="1395" value="Tại sao cần có Buildee" style="rounded=1;fillColor=#f5af58;strokeColor=none;strokeWidth=3;shadow=0;html=1;fontColor=#000000;" parent="1" vertex="1">
          <mxGeometry x="890.25" y="-120" width="146.5" height="40" as="geometry" />
        </mxCell>
        <mxCell id="1396" value="Các loại hình Công ty xây dựng " style="rounded=1;fillColor=#f5af58;strokeColor=none;strokeWidth=3;shadow=0;html=1;fontColor=#000000;" parent="1" vertex="1">
          <mxGeometry x="1123" y="-60" width="169" height="40" as="geometry" />
        </mxCell>
        <mxCell id="1398" value="Các đối tượng trong Buildee" style="rounded=1;fillColor=#f5af58;strokeColor=none;strokeWidth=3;shadow=0;html=1;fontColor=#000000;" parent="1" vertex="1">
          <mxGeometry x="1239.5" y="270" width="169" height="40" as="geometry" />
        </mxCell>
        <mxCell id="1404" value="" style="edgeStyle=none;endArrow=none;strokeWidth=3;strokeColor=#F5AF58;html=1;fontColor=#000000;" parent="1" source="1394" target="1392" edge="1">
          <mxGeometry x="3.5" y="21.5" width="100" height="100" as="geometry">
            <mxPoint x="-226.5" y="66.5" as="sourcePoint" />
            <mxPoint x="-126.5" y="-33.5" as="targetPoint" />
          </mxGeometry>
        </mxCell>
        <mxCell id="1405" value="" style="edgeStyle=none;endArrow=none;strokeWidth=3;strokeColor=#F5AF58;html=1;fontColor=#000000;" parent="1" source="1351" target="1393" edge="1">
          <mxGeometry x="3.5" y="21.5" width="100" height="100" as="geometry">
            <mxPoint x="-85.5" y="346.5" as="sourcePoint" />
            <mxPoint x="14.5" y="246.5" as="targetPoint" />
          </mxGeometry>
        </mxCell>
        <mxCell id="1406" value="" style="edgeStyle=none;endArrow=none;strokeWidth=3;strokeColor=#F5AF58;html=1;fontColor=#000000;" parent="1" source="1351" target="1394" edge="1">
          <mxGeometry x="3.5" y="21.5" width="100" height="100" as="geometry">
            <mxPoint x="-85.5" y="346.5" as="sourcePoint" />
            <mxPoint x="14.5" y="246.5" as="targetPoint" />
          </mxGeometry>
        </mxCell>
        <mxCell id="1407" value="" style="edgeStyle=none;endArrow=none;strokeWidth=3;strokeColor=#F5AF58;html=1;fontColor=#000000;" parent="1" source="1351" target="1395" edge="1">
          <mxGeometry x="3.5" y="21.5" width="100" height="100" as="geometry">
            <mxPoint x="-85.5" y="346.5" as="sourcePoint" />
            <mxPoint x="14.5" y="246.5" as="targetPoint" />
          </mxGeometry>
        </mxCell>
        <mxCell id="1408" value="" style="edgeStyle=none;endArrow=none;strokeWidth=3;strokeColor=#F5AF58;html=1;fontColor=#000000;" parent="1" source="1351" target="1396" edge="1">
          <mxGeometry x="3.5" y="21.5" width="100" height="100" as="geometry">
            <mxPoint x="-85.5" y="346.5" as="sourcePoint" />
            <mxPoint x="14.5" y="246.5" as="targetPoint" />
          </mxGeometry>
        </mxCell>
        <mxCell id="1409" value="" style="edgeStyle=none;endArrow=none;strokeWidth=3;strokeColor=#F5AF58;html=1;fontColor=#000000;" parent="1" source="1351" edge="1">
          <mxGeometry x="3.5" y="21.5" width="100" height="100" as="geometry">
            <mxPoint x="-85.5" y="346.5" as="sourcePoint" />
            <mxPoint x="917" y="516.0625" as="targetPoint" />
          </mxGeometry>
        </mxCell>
        <mxCell id="1410" value="" style="edgeStyle=none;endArrow=none;strokeWidth=3;strokeColor=#F5AF58;html=1;fontColor=#000000;" parent="1" source="1351" target="1398" edge="1">
          <mxGeometry x="3.5" y="21.5" width="100" height="100" as="geometry">
            <mxPoint x="-85.5" y="346.5" as="sourcePoint" />
            <mxPoint x="14.5" y="246.5" as="targetPoint" />
          </mxGeometry>
        </mxCell>
        <mxCell id="1515" value="Tìm hiểu dự án Buildee" style="ellipse;whiteSpace=wrap;html=1;shadow=0;fontFamily=Helvetica;fontSize=30;fontColor=#000000;align=center;strokeColor=#2F5B7C;strokeWidth=6;fillColor=#FFFFFF;fontStyle=1;gradientColor=none;" parent="1" vertex="1">
          <mxGeometry x="961" y="676.5" width="270" height="270" as="geometry" />
        </mxCell>
        <mxCell id="aR4ORL12m2-zaJOlgM8f-1542" value="Quản lý xây dựng là các thủ tục pháp lý với chính phủ và các loại giấy tờ tài liệu" style="whiteSpace=wrap;html=1;fillColor=#f5af58;strokeColor=none;fontColor=#000000;rounded=1;strokeWidth=3;shadow=0;" vertex="1" parent="1">
          <mxGeometry x="375.5" y="240" width="230" height="60" as="geometry" />
        </mxCell>
        <mxCell id="aR4ORL12m2-zaJOlgM8f-1544" value="" style="edgeStyle=none;endArrow=none;strokeWidth=3;strokeColor=#F5AF58;html=1;fontColor=#000000;" edge="1" parent="1" source="aR4ORL12m2-zaJOlgM8f-1542" target="1393">
          <mxGeometry x="3.5" y="21.5" width="100" height="100" as="geometry">
            <mxPoint x="558.5" y="100" as="sourcePoint" />
            <mxPoint x="1030.86" y="-63" as="targetPoint" />
          </mxGeometry>
        </mxCell>
        <mxCell id="aR4ORL12m2-zaJOlgM8f-1547" value="&lt;div&gt;Quản lý việc ra vào công trường &lt;br&gt;&lt;/div&gt;" style="rounded=1;fillColor=#f5af58;strokeColor=none;strokeWidth=3;shadow=0;html=1;fontColor=#000000;arcSize=0;" vertex="1" parent="1">
          <mxGeometry x="522.5" y="-100" width="219" height="40" as="geometry" />
        </mxCell>
        <mxCell id="aR4ORL12m2-zaJOlgM8f-1549" value="" style="edgeStyle=none;endArrow=none;strokeWidth=3;strokeColor=#F5AF58;html=1;fontColor=#000000;" edge="1" parent="1" source="aR4ORL12m2-zaJOlgM8f-1546">
          <mxGeometry x="3.5" y="21.5" width="100" height="100" as="geometry">
            <mxPoint x="1082.33" y="70" as="sourcePoint" />
            <mxPoint x="617.1875" y="-119.99999999999977" as="targetPoint" />
          </mxGeometry>
        </mxCell>
        <mxCell id="aR4ORL12m2-zaJOlgM8f-1553" value="" style="edgeStyle=none;endArrow=none;strokeWidth=3;strokeColor=#F5AF58;html=1;fontColor=#000000;" edge="1" parent="1" source="1394" target="aR4ORL12m2-zaJOlgM8f-1547">
          <mxGeometry x="3.5" y="21.5" width="100" height="100" as="geometry">
            <mxPoint x="1069" y="66.63999999999999" as="sourcePoint" />
            <mxPoint x="1214" y="52.639999999999986" as="targetPoint" />
          </mxGeometry>
        </mxCell>
        <mxCell id="aR4ORL12m2-zaJOlgM8f-1554" value="Tiết kiệm  thời gian  cho các giấy tờ" style="rounded=1;fillColor=#f5af58;strokeColor=none;strokeWidth=3;shadow=0;html=1;fontColor=#000000;" vertex="1" parent="1">
          <mxGeometry x="958.5" y="-210" width="190" height="40" as="geometry" />
        </mxCell>
        <mxCell id="aR4ORL12m2-zaJOlgM8f-1555" value="Tránh các vấn đề không đáng có (VD: tai nạn lao động )" style="rounded=1;fillColor=#f5af58;strokeColor=none;strokeWidth=3;shadow=0;html=1;fontColor=#000000;" vertex="1" parent="1">
          <mxGeometry x="1062.5" y="-130" width="310" height="40" as="geometry" />
        </mxCell>
        <mxCell id="aR4ORL12m2-zaJOlgM8f-1558" value="" style="edgeStyle=none;endArrow=none;strokeWidth=3;strokeColor=#F5AF58;html=1;fontColor=#000000;" edge="1" parent="1" source="1395" target="aR4ORL12m2-zaJOlgM8f-1554">
          <mxGeometry x="3.5" y="21.5" width="100" height="100" as="geometry">
            <mxPoint x="1078.5" y="-19.399999999999977" as="sourcePoint" />
            <mxPoint x="1241.5" y="-10.399999999999977" as="targetPoint" />
          </mxGeometry>
        </mxCell>
        <mxCell id="aR4ORL12m2-zaJOlgM8f-1559" value="" style="edgeStyle=none;endArrow=none;strokeWidth=3;strokeColor=#F5AF58;html=1;fontColor=#000000;" edge="1" parent="1" source="1395" target="aR4ORL12m2-zaJOlgM8f-1555">
          <mxGeometry x="3.5" y="21.5" width="100" height="100" as="geometry">
            <mxPoint x="1207.5" y="60" as="sourcePoint" />
            <mxPoint x="1278.5" y="60" as="targetPoint" />
          </mxGeometry>
        </mxCell>
        <mxCell id="aR4ORL12m2-zaJOlgM8f-1560" value="Các quy trình cho đến khi bắt đầu xây dựng" style="rounded=1;fillColor=#f5af58;strokeColor=none;strokeWidth=3;shadow=0;html=1;fontColor=#000000;" vertex="1" parent="1">
          <mxGeometry x="1153.25" y="40" width="245.5" height="40" as="geometry" />
        </mxCell>
        <mxCell id="aR4ORL12m2-zaJOlgM8f-1561" value="" style="edgeStyle=none;endArrow=none;strokeWidth=3;strokeColor=#F5AF58;html=1;fontColor=#000000;" edge="1" parent="1" source="1351" target="aR4ORL12m2-zaJOlgM8f-1560">
          <mxGeometry x="3.5" y="21.5" width="100" height="100" as="geometry">
            <mxPoint x="1162.55" y="547.5" as="sourcePoint" />
            <mxPoint x="1301.55" y="466.5" as="targetPoint" />
          </mxGeometry>
        </mxCell>
        <mxCell id="aR4ORL12m2-zaJOlgM8f-1562" value="Nhà thầu chính : Công ty tiến hành xây dựng với tư cách là đơn vị dẫn đầu" style="whiteSpace=wrap;html=1;fillColor=#f5af58;strokeColor=none;fontColor=#000000;rounded=1;strokeWidth=3;shadow=0;" vertex="1" parent="1">
          <mxGeometry x="1408.5" y="-120" width="440" height="30" as="geometry" />
        </mxCell>
        <mxCell id="aR4ORL12m2-zaJOlgM8f-1564" value="" style="edgeStyle=none;endArrow=none;strokeWidth=3;strokeColor=#F5AF58;html=1;fontColor=#000000;" edge="1" parent="1" source="1396" target="aR4ORL12m2-zaJOlgM8f-1562">
          <mxGeometry x="3.5" y="21.5" width="100" height="100" as="geometry">
            <mxPoint x="1215.5" y="39" as="sourcePoint" />
            <mxPoint x="1275.5" y="30" as="targetPoint" />
            <Array as="points" />
          </mxGeometry>
        </mxCell>
        <mxCell id="aR4ORL12m2-zaJOlgM8f-1567" value="Nhà thầu phụ: làm việc dưới  quản lý của nhà thầu chính" style="whiteSpace=wrap;html=1;fillColor=#f5af58;strokeColor=none;fontColor=#000000;rounded=1;strokeWidth=3;shadow=0;" vertex="1" parent="1">
          <mxGeometry x="1464.5" y="-60" width="310" height="25" as="geometry" />
        </mxCell>
        <mxCell id="aR4ORL12m2-zaJOlgM8f-1568" value="" style="edgeStyle=none;endArrow=none;strokeWidth=3;strokeColor=#F5AF58;html=1;fontColor=#000000;" edge="1" parent="1" source="1396" target="aR4ORL12m2-zaJOlgM8f-1567">
          <mxGeometry x="3.5" y="21.5" width="100" height="100" as="geometry">
            <mxPoint x="1394.15" y="206.5036817102137" as="sourcePoint" />
            <mxPoint x="1633.496153846154" y="169.55" as="targetPoint" />
            <Array as="points" />
          </mxGeometry>
        </mxCell>
        <mxCell id="aR4ORL12m2-zaJOlgM8f-1570" value="Khách hàng ủy thác cho nhà thầu chính xây dựng" style="rounded=1;fillColor=#f5af58;strokeColor=none;strokeWidth=3;shadow=0;html=1;fontColor=#000000;" vertex="1" parent="1">
          <mxGeometry x="1449.5" y="-30" width="319" height="40" as="geometry" />
        </mxCell>
        <mxCell id="aR4ORL12m2-zaJOlgM8f-1571" value="Nhà thầu chính  chuẩn bị xây dựng, mời các công ty hợp tác  " style="rounded=1;fillColor=#f5af58;strokeColor=none;strokeWidth=3;shadow=0;html=1;fontColor=#000000;" vertex="1" parent="1">
          <mxGeometry x="1487.5" y="30" width="339" height="40" as="geometry" />
        </mxCell>
        <mxCell id="aR4ORL12m2-zaJOlgM8f-1572" value="Sau khi  mời xong các công ty hợp tác thì  tiến hành xây dựng công trường." style="rounded=1;fillColor=#f5af58;strokeColor=none;strokeWidth=3;shadow=0;html=1;fontColor=#000000;" vertex="1" parent="1">
          <mxGeometry x="1464" y="80" width="419" height="40" as="geometry" />
        </mxCell>
        <mxCell id="aR4ORL12m2-zaJOlgM8f-1573" value="" style="edgeStyle=none;endArrow=none;strokeWidth=3;strokeColor=#F5AF58;html=1;fontColor=#000000;" edge="1" parent="1" source="aR4ORL12m2-zaJOlgM8f-1560" target="aR4ORL12m2-zaJOlgM8f-1570">
          <mxGeometry x="3.5" y="21.5" width="100" height="100" as="geometry">
            <mxPoint x="1292.5" y="-42" as="sourcePoint" />
            <mxPoint x="1464.5" y="-45" as="targetPoint" />
            <Array as="points" />
          </mxGeometry>
        </mxCell>
        <mxCell id="aR4ORL12m2-zaJOlgM8f-1574" value="" style="edgeStyle=none;endArrow=none;strokeWidth=3;strokeColor=#F5AF58;html=1;fontColor=#000000;" edge="1" parent="1" source="aR4ORL12m2-zaJOlgM8f-1560" target="aR4ORL12m2-zaJOlgM8f-1571">
          <mxGeometry x="3.5" y="21.5" width="100" height="100" as="geometry">
            <mxPoint x="1381.1" y="149.69" as="sourcePoint" />
            <mxPoint x="1478.1" y="136.69" as="targetPoint" />
            <Array as="points" />
          </mxGeometry>
        </mxCell>
        <mxCell id="aR4ORL12m2-zaJOlgM8f-1575" value="" style="edgeStyle=none;endArrow=none;strokeWidth=3;strokeColor=#F5AF58;html=1;fontColor=#000000;" edge="1" parent="1" source="aR4ORL12m2-zaJOlgM8f-1560" target="aR4ORL12m2-zaJOlgM8f-1572">
          <mxGeometry x="3.5" y="21.5" width="100" height="100" as="geometry">
            <mxPoint x="1409" y="129.62" as="sourcePoint" />
            <mxPoint x="1494" y="129.62" as="targetPoint" />
            <Array as="points" />
          </mxGeometry>
        </mxCell>
        <mxCell id="aR4ORL12m2-zaJOlgM8f-1576" value="Admin hệ thống" style="rounded=1;fillColor=#f5af58;strokeColor=none;strokeWidth=3;shadow=0;html=1;fontColor=#000000;" vertex="1" parent="1">
          <mxGeometry x="1449.5" y="127.1" width="169" height="40" as="geometry" />
        </mxCell>
        <mxCell id="aR4ORL12m2-zaJOlgM8f-1577" value="Admin trụ sở chính " style="rounded=1;fillColor=#f5af58;strokeColor=none;strokeWidth=3;shadow=0;html=1;fontColor=#000000;" vertex="1" parent="1">
          <mxGeometry x="1505" y="170" width="169" height="40" as="geometry" />
        </mxCell>
        <mxCell id="aR4ORL12m2-zaJOlgM8f-1578" value="Admin chi nhánh" style="rounded=1;fillColor=#f5af58;strokeColor=none;strokeWidth=3;shadow=0;html=1;fontColor=#000000;" vertex="1" parent="1">
          <mxGeometry x="1540.5" y="220" width="169" height="40" as="geometry" />
        </mxCell>
        <mxCell id="aR4ORL12m2-zaJOlgM8f-1579" value="Quản đốc hiện trường " style="rounded=1;fillColor=#f5af58;strokeColor=none;strokeWidth=3;shadow=0;html=1;fontColor=#000000;" vertex="1" parent="1">
          <mxGeometry x="1524.5" y="270" width="169" height="40" as="geometry" />
        </mxCell>
        <mxCell id="aR4ORL12m2-zaJOlgM8f-1580" value="Admin công ty hợp tác " style="rounded=1;fillColor=#f5af58;strokeColor=none;strokeWidth=3;shadow=0;html=1;fontColor=#000000;" vertex="1" parent="1">
          <mxGeometry x="1525" y="320" width="169" height="40" as="geometry" />
        </mxCell>
        <mxCell id="aR4ORL12m2-zaJOlgM8f-1581" value="Thợ cả" style="rounded=1;fillColor=#f5af58;strokeColor=none;strokeWidth=3;shadow=0;html=1;fontColor=#000000;" vertex="1" parent="1">
          <mxGeometry x="1518.5" y="370" width="169" height="40" as="geometry" />
        </mxCell>
        <mxCell id="aR4ORL12m2-zaJOlgM8f-1582" value="Thợ thủ công" style="rounded=1;fillColor=#f5af58;strokeColor=none;strokeWidth=3;shadow=0;html=1;fontColor=#000000;" vertex="1" parent="1">
          <mxGeometry x="1464.5" y="415" width="169" height="40" as="geometry" />
        </mxCell>
        <mxCell id="aR4ORL12m2-zaJOlgM8f-1583" value="" style="edgeStyle=none;endArrow=none;strokeWidth=3;strokeColor=#F5AF58;html=1;fontColor=#000000;" edge="1" parent="1" source="1398" target="aR4ORL12m2-zaJOlgM8f-1576">
          <mxGeometry x="3.5" y="21.5" width="100" height="100" as="geometry">
            <mxPoint x="1212.08" y="510.08000000000004" as="sourcePoint" />
            <mxPoint x="1377.08" y="325.08000000000004" as="targetPoint" />
          </mxGeometry>
        </mxCell>
        <mxCell id="aR4ORL12m2-zaJOlgM8f-1584" value="" style="edgeStyle=none;endArrow=none;strokeWidth=3;strokeColor=#F5AF58;html=1;fontColor=#000000;" edge="1" parent="1" source="1398" target="aR4ORL12m2-zaJOlgM8f-1577">
          <mxGeometry x="3.5" y="21.5" width="100" height="100" as="geometry">
            <mxPoint x="1212.08" y="510.08000000000004" as="sourcePoint" />
            <mxPoint x="1377.08" y="325.08000000000004" as="targetPoint" />
          </mxGeometry>
        </mxCell>
        <mxCell id="aR4ORL12m2-zaJOlgM8f-1585" value="" style="edgeStyle=none;endArrow=none;strokeWidth=3;strokeColor=#F5AF58;html=1;fontColor=#000000;" edge="1" parent="1" source="1398" target="aR4ORL12m2-zaJOlgM8f-1578">
          <mxGeometry x="3.5" y="21.5" width="100" height="100" as="geometry">
            <mxPoint x="1212.08" y="510.08000000000004" as="sourcePoint" />
            <mxPoint x="1377.08" y="325.08000000000004" as="targetPoint" />
          </mxGeometry>
        </mxCell>
        <mxCell id="aR4ORL12m2-zaJOlgM8f-1586" value="" style="edgeStyle=none;endArrow=none;strokeWidth=3;strokeColor=#F5AF58;html=1;fontColor=#000000;" edge="1" parent="1" source="1398" target="aR4ORL12m2-zaJOlgM8f-1579">
          <mxGeometry x="3.5" y="21.5" width="100" height="100" as="geometry">
            <mxPoint x="1212.08" y="510.08000000000004" as="sourcePoint" />
            <mxPoint x="1377.08" y="325.08000000000004" as="targetPoint" />
          </mxGeometry>
        </mxCell>
        <mxCell id="aR4ORL12m2-zaJOlgM8f-1587" value="" style="edgeStyle=none;endArrow=none;strokeWidth=3;strokeColor=#F5AF58;html=1;fontColor=#000000;" edge="1" parent="1" source="1398" target="aR4ORL12m2-zaJOlgM8f-1580">
          <mxGeometry x="3.5" y="21.5" width="100" height="100" as="geometry">
            <mxPoint x="1212.08" y="510.08000000000004" as="sourcePoint" />
            <mxPoint x="1377.08" y="325.08000000000004" as="targetPoint" />
          </mxGeometry>
        </mxCell>
        <mxCell id="aR4ORL12m2-zaJOlgM8f-1588" value="" style="edgeStyle=none;endArrow=none;strokeWidth=3;strokeColor=#F5AF58;html=1;fontColor=#000000;" edge="1" parent="1" source="1398" target="aR4ORL12m2-zaJOlgM8f-1581">
          <mxGeometry x="3.5" y="21.5" width="100" height="100" as="geometry">
            <mxPoint x="1212.08" y="510.08000000000004" as="sourcePoint" />
            <mxPoint x="1377.08" y="325.08000000000004" as="targetPoint" />
          </mxGeometry>
        </mxCell>
        <mxCell id="aR4ORL12m2-zaJOlgM8f-1589" value="" style="edgeStyle=none;endArrow=none;strokeWidth=3;strokeColor=#F5AF58;html=1;fontColor=#000000;" edge="1" parent="1" source="1398" target="aR4ORL12m2-zaJOlgM8f-1582">
          <mxGeometry x="3.5" y="21.5" width="100" height="100" as="geometry">
            <mxPoint x="1212.08" y="510.08000000000004" as="sourcePoint" />
            <mxPoint x="1377.08" y="325.08000000000004" as="targetPoint" />
          </mxGeometry>
        </mxCell>
        <mxCell id="aR4ORL12m2-zaJOlgM8f-1590" value="" style="edgeStyle=none;endArrow=none;strokeWidth=3;strokeColor=#F5AF58;html=1;fontColor=#000000;" edge="1" parent="1" source="1394" target="aR4ORL12m2-zaJOlgM8f-1546">
          <mxGeometry x="3.5" y="21.5" width="100" height="100" as="geometry">
            <mxPoint x="769.5" y="-77" as="sourcePoint" />
            <mxPoint x="617.1875" y="-119.99999999999977" as="targetPoint" />
          </mxGeometry>
        </mxCell>
        <mxCell id="aR4ORL12m2-zaJOlgM8f-1546" value="&lt;div&gt;Quản lý an toàn lao động&lt;br&gt;&lt;/div&gt;" style="rounded=1;fillColor=#f5af58;strokeColor=none;strokeWidth=3;shadow=0;html=1;fontColor=#000000;arcSize=0;" vertex="1" parent="1">
          <mxGeometry x="607.5" y="-160" width="219" height="40" as="geometry" />
        </mxCell>
        <mxCell id="aR4ORL12m2-zaJOlgM8f-1592" value="Hệ thống cung cấp service chức năng quản lý cuộc họp" style="rounded=1;fillColor=#f5af58;strokeColor=none;strokeWidth=3;shadow=0;html=1;fontColor=#000000;arcSize=0;" vertex="1" parent="1">
          <mxGeometry x="516.5" y="-300" width="313" height="40" as="geometry" />
        </mxCell>
        <mxCell id="aR4ORL12m2-zaJOlgM8f-1593" value="" style="edgeStyle=none;endArrow=none;strokeWidth=3;strokeColor=#F5AF58;html=1;fontColor=#000000;" edge="1" parent="1" source="aR4ORL12m2-zaJOlgM8f-1592" target="1392">
          <mxGeometry x="3.5" y="21.5" width="100" height="100" as="geometry">
            <mxPoint x="-226.5" y="66.5" as="sourcePoint" />
            <mxPoint x="-126.5" y="-33.5" as="targetPoint" />
          </mxGeometry>
        </mxCell>
        <mxCell id="aR4ORL12m2-zaJOlgM8f-1594" value="Các công ty có thể chia sẻ thông tin liên quan đến công trường " style="rounded=1;fillColor=#f5af58;strokeColor=none;strokeWidth=3;shadow=0;html=1;fontColor=#000000;arcSize=0;" vertex="1" parent="1">
          <mxGeometry x="310" y="-230" width="350" height="40" as="geometry" />
        </mxCell>
        <mxCell id="aR4ORL12m2-zaJOlgM8f-1595" value="" style="edgeStyle=none;endArrow=none;strokeWidth=3;strokeColor=#F5AF58;html=1;fontColor=#000000;" edge="1" parent="1" source="aR4ORL12m2-zaJOlgM8f-1592" target="1392">
          <mxGeometry x="3.5" y="21.5" width="100" height="100" as="geometry">
            <mxPoint x="-226.5" y="66.5" as="sourcePoint" />
            <mxPoint x="-126.5" y="-33.5" as="targetPoint" />
          </mxGeometry>
        </mxCell>
        <mxCell id="aR4ORL12m2-zaJOlgM8f-1596" value="" style="edgeStyle=none;endArrow=none;strokeWidth=3;strokeColor=#F5AF58;html=1;fontColor=#000000;" edge="1" parent="1" source="aR4ORL12m2-zaJOlgM8f-1594" target="1392">
          <mxGeometry x="3.5" y="21.5" width="100" height="100" as="geometry">
            <mxPoint x="-226.5" y="66.5" as="sourcePoint" />
            <mxPoint x="-126.5" y="-33.5" as="targetPoint" />
          </mxGeometry>
        </mxCell>
        <mxCell id="aR4ORL12m2-zaJOlgM8f-1597" value="Cung cấp service quản lý  giấy tờ tài liệu liên quan đến an toàn lao động " style="rounded=1;fillColor=#f5af58;strokeColor=none;strokeWidth=3;shadow=0;html=1;fontColor=#000000;arcSize=0;" vertex="1" parent="1">
          <mxGeometry x="160" y="-160" width="399.5" height="30" as="geometry" />
        </mxCell>
        <mxCell id="aR4ORL12m2-zaJOlgM8f-1598" value="" style="edgeStyle=none;endArrow=none;strokeWidth=3;strokeColor=#F5AF58;html=1;fontColor=#000000;" edge="1" parent="1" source="aR4ORL12m2-zaJOlgM8f-1597" target="aR4ORL12m2-zaJOlgM8f-1546">
          <mxGeometry x="3.5" y="21.5" width="100" height="100" as="geometry">
            <mxPoint x="769.5" y="-77" as="sourcePoint" />
            <mxPoint x="617.1875" y="-119.99999999999977" as="targetPoint" />
          </mxGeometry>
        </mxCell>
        <mxCell id="aR4ORL12m2-zaJOlgM8f-1599" value="Cung cấp service quản lý hồ sơ chấm công của công nhân" style="rounded=1;fillColor=#f5af58;strokeColor=none;strokeWidth=3;shadow=0;html=1;fontColor=#000000;arcSize=0;" vertex="1" parent="1">
          <mxGeometry x="174" y="-113" width="318" height="40" as="geometry" />
        </mxCell>
        <mxCell id="aR4ORL12m2-zaJOlgM8f-1600" value="" style="edgeStyle=none;endArrow=none;strokeWidth=3;strokeColor=#F5AF58;html=1;fontColor=#000000;" edge="1" parent="1" source="aR4ORL12m2-zaJOlgM8f-1599" target="aR4ORL12m2-zaJOlgM8f-1547">
          <mxGeometry x="3.5" y="21.5" width="100" height="100" as="geometry">
            <mxPoint x="1069" y="66.63999999999999" as="sourcePoint" />
            <mxPoint x="1214" y="52.639999999999986" as="targetPoint" />
          </mxGeometry>
        </mxCell>
        <mxCell id="aR4ORL12m2-zaJOlgM8f-1601" value="Liên kết đến hệ thống CCUS" style="rounded=1;fillColor=#f5af58;strokeColor=none;strokeWidth=3;shadow=0;html=1;fontColor=#000000;arcSize=0;" vertex="1" parent="1">
          <mxGeometry x="547" y="-20" width="170" height="30" as="geometry" />
        </mxCell>
        <mxCell id="aR4ORL12m2-zaJOlgM8f-1602" value="" style="edgeStyle=none;endArrow=none;strokeWidth=3;strokeColor=#F5AF58;html=1;fontColor=#000000;" edge="1" parent="1" source="aR4ORL12m2-zaJOlgM8f-1601" target="aR4ORL12m2-zaJOlgM8f-1547">
          <mxGeometry x="3.5" y="21.5" width="100" height="100" as="geometry">
            <mxPoint x="1069" y="66.63999999999999" as="sourcePoint" />
            <mxPoint x="1214" y="52.639999999999986" as="targetPoint" />
          </mxGeometry>
        </mxCell>
        <mxCell id="aR4ORL12m2-zaJOlgM8f-1603" value="&lt;div&gt;hệ thống quản lý thông tin các&lt;/div&gt;&lt;div&gt;&amp;nbsp;kỹ sư trong ngành xây dựng&lt;/div&gt;" style="rounded=1;fillColor=#f5af58;strokeColor=none;strokeWidth=3;shadow=0;html=1;fontColor=#000000;arcSize=0;" vertex="1" parent="1">
          <mxGeometry x="346" y="-28.230000000000018" width="172" height="46.45" as="geometry" />
        </mxCell>
        <mxCell id="aR4ORL12m2-zaJOlgM8f-1604" value="" style="edgeStyle=none;endArrow=none;strokeWidth=3;strokeColor=#F5AF58;html=1;fontColor=#000000;" edge="1" parent="1" source="aR4ORL12m2-zaJOlgM8f-1601" target="aR4ORL12m2-zaJOlgM8f-1603">
          <mxGeometry x="3.5" y="21.5" width="100" height="100" as="geometry">
            <mxPoint x="1069" y="66.63999999999999" as="sourcePoint" />
            <mxPoint x="1214" y="52.639999999999986" as="targetPoint" />
          </mxGeometry>
        </mxCell>
        <mxCell id="aR4ORL12m2-zaJOlgM8f-1605" value="trình độ tích lũy" style="rounded=1;fillColor=#f5af58;strokeColor=none;strokeWidth=3;shadow=0;html=1;fontColor=#000000;arcSize=0;" vertex="1" parent="1">
          <mxGeometry x="179.5" y="-60" width="100.5" height="27.9" as="geometry" />
        </mxCell>
        <mxCell id="aR4ORL12m2-zaJOlgM8f-1606" value="thông tin bảo hiểm" style="rounded=1;fillColor=#f5af58;strokeColor=none;strokeWidth=3;shadow=0;html=1;fontColor=#000000;arcSize=0;" vertex="1" parent="1">
          <mxGeometry x="165.5" y="18.94999999999999" width="114.5" height="30" as="geometry" />
        </mxCell>
        <mxCell id="aR4ORL12m2-zaJOlgM8f-1607" value="quá trình làm việc" style="rounded=1;fillColor=#f5af58;strokeColor=none;strokeWidth=3;shadow=0;html=1;fontColor=#000000;arcSize=0;" vertex="1" parent="1">
          <mxGeometry x="172.25" y="-22.829999999999984" width="107.75" height="32.9" as="geometry" />
        </mxCell>
        <mxCell id="aR4ORL12m2-zaJOlgM8f-1608" value="" style="edgeStyle=none;endArrow=none;strokeWidth=3;strokeColor=#F5AF58;html=1;fontColor=#000000;" edge="1" parent="1" source="aR4ORL12m2-zaJOlgM8f-1605" target="aR4ORL12m2-zaJOlgM8f-1603">
          <mxGeometry x="3.5" y="21.5" width="100" height="100" as="geometry">
            <mxPoint x="1069" y="66.63999999999999" as="sourcePoint" />
            <mxPoint x="1214" y="52.639999999999986" as="targetPoint" />
          </mxGeometry>
        </mxCell>
        <mxCell id="aR4ORL12m2-zaJOlgM8f-1609" value="" style="edgeStyle=none;endArrow=none;strokeWidth=3;strokeColor=#F5AF58;html=1;fontColor=#000000;" edge="1" parent="1" source="aR4ORL12m2-zaJOlgM8f-1607" target="aR4ORL12m2-zaJOlgM8f-1603">
          <mxGeometry x="3.5" y="21.5" width="100" height="100" as="geometry">
            <mxPoint x="1069" y="66.63999999999999" as="sourcePoint" />
            <mxPoint x="1214" y="52.639999999999986" as="targetPoint" />
          </mxGeometry>
        </mxCell>
        <mxCell id="aR4ORL12m2-zaJOlgM8f-1610" value="" style="edgeStyle=none;endArrow=none;strokeWidth=3;strokeColor=#F5AF58;html=1;fontColor=#000000;" edge="1" parent="1" source="aR4ORL12m2-zaJOlgM8f-1606" target="aR4ORL12m2-zaJOlgM8f-1603">
          <mxGeometry x="3.5" y="21.5" width="100" height="100" as="geometry">
            <mxPoint x="1069" y="66.63999999999999" as="sourcePoint" />
            <mxPoint x="1214" y="52.639999999999986" as="targetPoint" />
          </mxGeometry>
        </mxCell>
      </root>
    </mxGraphModel>
  </diagram>
</mxfile>
